<svg xmlns="http://www.w3.org/2000/svg" width="24" height="22" viewBox="0 0 24 22">
  <g id="_17.talk" data-name="17.talk" transform="translate(0 -1)">
    <path id="パス_50" data-name="パス 50" d="M9,23a1,1,0,0,1-1-1V19H4a4,4,0,0,1-4-4V5A4,4,0,0,1,4,1H20a4,4,0,0,1,4,4V15a4,4,0,0,1-4,4H13.414L9.707,22.707A1,1,0,0,1,9,23ZM4,3A2,2,0,0,0,2,5V15a2,2,0,0,0,2,2H9a1,1,0,0,1,1,1v1.586l2.293-2.293A1,1,0,0,1,13,17h7a2,2,0,0,0,2-2V5a2,2,0,0,0-2-2Z" fill="#fff"/>
    <path id="パス_51" data-name="パス 51" d="M13,9H6A1,1,0,0,1,6,7h7a1,1,0,0,1,0,2Z" fill="#fff"/>
    <path id="パス_52" data-name="パス 52" d="M18,13H6a1,1,0,0,1,0-2H18a1,1,0,0,1,0,2Z" fill="#fff"/>
  </g>
</svg>
