<svg xmlns="http://www.w3.org/2000/svg" width="12.311" height="11.766" viewBox="0 0 12.311 11.766">
  <g id="Design_star" transform="translate(-3.685 -2.829)">
    <g id="star_1_" transform="translate(4.194 3.328)">
      <path id="パス_494" data-name="パス 494" d="M10.112,3.525l1.138,3.5a.285.285,0,0,0,.271.2H15.2a.285.285,0,0,1,.167.516L12.393,9.891a.285.285,0,0,0-.1.319L13.426,13.7a.285.285,0,0,1-.439.319l-2.979-2.168a.285.285,0,0,0-.335,0L6.694,14.017a.285.285,0,0,1-.439-.319l1.137-3.487a.285.285,0,0,0-.1-.319L4.313,7.742a.285.285,0,0,1,.167-.516H8.16a.285.285,0,0,0,.271-.2l1.138-3.5A.285.285,0,0,1,10.112,3.525Z" transform="translate(-4.194 -3.328)" fill="none" stroke="#000" stroke-linejoin="round" stroke-miterlimit="10" stroke-width="1"/>
    </g>
  </g>
</svg>
