<svg id="アセット_4" data-name="アセット 4" xmlns="http://www.w3.org/2000/svg" width="127.098" height="26.554" viewBox="0 0 127.098 26.554">
  <g id="レイヤー_1" data-name="レイヤー 1">
    <rect id="長方形_7" data-name="長方形 7" width="6.615" height="25.466" transform="translate(0 0.545)" fill="#fff"/>
    <path id="パス_2" data-name="パス 2" d="M81.1,0A13.758,13.758,0,0,0,69.153,6.469,13.705,13.705,0,0,0,57.208,0a13.547,13.547,0,0,0-9.821,3.85,12.657,12.657,0,0,0-3.978,9.461,12.586,12.586,0,0,0,3.966,9.433,13.683,13.683,0,0,0,9.838,3.81,13.606,13.606,0,0,0,9.823-3.81,13.308,13.308,0,0,0,2.114-2.585,13.309,13.309,0,0,0,2.114,2.585,14.583,14.583,0,0,0,19.659,0,12.55,12.55,0,0,0,3.968-9.433,12.656,12.656,0,0,0-3.974-9.469A13.558,13.558,0,0,0,81.1,0ZM62.156,18.183a6.7,6.7,0,0,1-4.948,1.955,6.769,6.769,0,0,1-4.972-1.947,6.616,6.616,0,0,1-1.947-4.88,6.664,6.664,0,0,1,6.927-6.9A6.64,6.64,0,0,1,62.156,8.4a6.728,6.728,0,0,1,1.955,4.916A6.642,6.642,0,0,1,62.156,18.183Zm23.889,0A6.7,6.7,0,0,1,81.1,20.138a6.778,6.778,0,0,1-4.972-1.947,6.6,6.6,0,0,1-1.953-4.88,6.661,6.661,0,0,1,6.927-6.9A6.64,6.64,0,0,1,86.039,8.4a6.721,6.721,0,0,1,1.953,4.916A6.625,6.625,0,0,1,86.045,18.183Z" transform="translate(-34.777)" fill="#fff"/>
    <path id="パス_3" data-name="パス 3" d="M331.338,5.84q-3.809-3.1-12.529-3.1H313.3V28.2h6.5q7.868,0,11.61-3.132t3.745-9.566Q335.149,8.941,331.338,5.84ZM326.39,20.874Q324.511,22.6,320.5,22.6h-.577V8.346h.577q3.991,0,5.879,1.74t1.889,5.419Q328.271,19.149,326.39,20.874Z" transform="translate(-250.992 -2.195)" fill="#fff"/>
    <path id="パス_4" data-name="パス 4" d="M427.4,28.2h14.564V22.6h-7.933V18.012h7.6V12.6h-7.6V8.346h7.933V2.74H427.4Z" transform="translate(-342.4 -2.195)" fill="#fff"/>
    <path id="パス_5" data-name="パス 5" d="M522.364,2.74h-8.609L504.7,28.2h7.092l1.418-4.518h9.731l1.392,4.518h7.092ZM514.7,18.787l3.4-10.825,3.381,10.819Z" transform="translate(-404.327 -2.195)" fill="#fff"/>
  </g>
</svg>
