<svg xmlns="http://www.w3.org/2000/svg" width="21.269" height="21.251" viewBox="0 0 21.269 21.251">
  <g id="_21.search" data-name="21.search" transform="translate(0.5 0.5)">
    <path id="パス_61" data-name="パス 61" d="M7.594,15.188a7.594,7.594,0,1,1,7.594-7.594A7.594,7.594,0,0,1,7.594,15.188Zm0-13.5A5.907,5.907,0,1,0,13.5,7.594,5.907,5.907,0,0,0,7.594,1.688Z" fill="#fff" stroke="#fff" stroke-width="1"/>
    <path id="パス_62" data-name="パス 62" d="M21.594,22.438a.844.844,0,0,1-.6-.247L14.247,15.44a.844.844,0,1,1,1.193-1.193L22.191,21a.844.844,0,0,1-.6,1.44Z" transform="translate(-2.187 -2.187)" fill="#fff" stroke="#fff" stroke-width="1"/>
  </g>
</svg>
