<svg xmlns="http://www.w3.org/2000/svg" width="39.45" height="40.601" viewBox="0 0 39.45 40.601">
  <g id="_86.share" data-name="86.share" transform="translate(-3 -6)">
    <path id="パス_307" data-name="パス 307" d="M11.767,25.533a8.767,8.767,0,1,1,8.767-8.767A8.767,8.767,0,0,1,11.767,25.533Zm0-13.15a4.383,4.383,0,1,0,4.383,4.383A4.383,4.383,0,0,0,11.767,12.383Z" transform="translate(0 9.533)"/>
    <path id="パス_308" data-name="パス 308" d="M21.767,17.533a8.767,8.767,0,1,1,8.767-8.767A8.767,8.767,0,0,1,21.767,17.533Zm0-13.15A4.383,4.383,0,1,0,26.15,8.767,4.383,4.383,0,0,0,21.767,4.383Z" transform="translate(11.917 6)"/>
    <path id="パス_309" data-name="パス 309" d="M21.767,33.533a8.767,8.767,0,1,1,8.767-8.767A8.767,8.767,0,0,1,21.767,33.533Zm0-13.15a4.383,4.383,0,1,0,4.383,4.383A4.383,4.383,0,0,0,21.767,20.383Z" transform="translate(11.917 13.067)"/>
    <path id="パス_427" data-name="パス 427" d="M0,0,12.551,1.851l.578,3.661L.578,3.661Z" transform="matrix(0.781, -0.625, 0.625, 0.781, 16.973, 21.855)"/>
    <path id="パス_428" data-name="パス 428" d="M0,0,3.661.578,5.512,13.131l-3.661-.578Z" transform="matrix(0.625, -0.781, 0.781, 0.625, 16.971, 30.747)"/>
  </g>
</svg>
